<svg aria-hidden="true" style="width:0;height:0;position:absolute;overflow:hidden" xmlns="http://www.w3.org/2000/svg"><defs><symbol id="icon-sinus-mobile" viewBox="0 0 42 32"><path fill="#fff" style="fill:var(--color1,#fff)" opacity=".8" d="M1.371 31.561c-.431.116-.889.085-1.371-.097l.177-.469c.399.15.749.167 1.064.082.318-.086.622-.281.915-.589.593-.625 1.107-1.676 1.57-3.058.821-2.454 1.446-5.836 2.105-9.403v-.002l.247-1.335c.752-4.034 1.581-8.179 2.817-11.317.618-1.569 1.346-2.905 2.23-3.853.889-.952 1.947-1.519 3.208-1.519 1.141 0 2.134.528 3.001 1.412.862.881 1.612 2.126 2.278 3.597 1.332 2.942 2.361 6.854 3.284 10.743.222.936.438 1.87.651 2.79v.002c.674 2.913 1.313 5.68 2.008 7.888.457 1.453.932 2.644 1.446 3.468.362.58.72.942 1.078 1.11l.005-.014c.399.15.749.167 1.064.082.318-.086.622-.28.915-.589.593-.624 1.107-1.676 1.57-3.058.821-2.454 1.446-5.836 2.105-9.403v-.003l.003-.014.244-1.32c.751-4.034 1.581-8.179 2.817-11.317.618-1.569 1.346-2.905 2.23-3.853.889-.953 1.947-1.52 3.208-1.52 1.142 0 2.133.528 2.996 1.413.859.881 1.604 2.126 2.264 3.598 1.321 2.942 2.334 6.855 3.242 10.744.219.936.431 1.871.64 2.791v.002c.662 2.913 1.291 5.68 1.977 7.888.451 1.453.922 2.644 1.433 3.468.359.579.716.942 1.073 1.109L55.87 31c.398.15.751.167 1.072.082.323-.086.634-.282.935-.591.61-.625 1.147-1.679 1.637-3.061.874-2.463 1.565-5.861 2.293-9.443l.001-.006.263-1.292c.826-4.034 1.731-8.179 3.023-11.316.646-1.569 1.397-2.905 2.297-3.851C68.296.57 69.362.004 70.623.004c1.141 0 2.134.528 3 1.412.863.881 1.612 2.126 2.278 3.597 1.332 2.942 2.361 6.854 3.284 10.743.222.936.438 1.871.651 2.792.674 2.913 1.313 5.679 2.008 7.887.457 1.453.932 2.644 1.446 3.468.521.835 1.035 1.219 1.55 1.219v.501c-.79 0-1.434-.588-1.975-1.455-.548-.879-1.039-2.119-1.499-3.583-.701-2.228-1.347-5.023-2.021-7.941l-.001-.004c-.888-4.274-1.111-5.206-1.337-6.136l.691 3.366c-.923-3.891-1.943-7.759-3.253-10.651-.655-1.447-1.375-2.632-2.179-3.453C72.465.948 71.593.504 70.624.504c-1.091 0-2.034.485-2.869 1.362-.84.882-1.562 2.154-2.197 3.697-1.272 3.086-2.168 7.184-2.996 11.226l-.265 1.3c-.726 3.572-1.424 7.008-2.311 9.507-.496 1.398-1.063 2.537-1.751 3.243-.347.356-.733.611-1.166.726a2.013 2.013 0 0 1-.743.056l.009.001v.002c-.79 0-1.432-.588-1.97-1.456-.545-.879-1.031-2.119-1.485-3.583-.692-2.229-1.327-5.024-1.991-7.941-.208-.917-.419-1.846-.636-2.774-.908-3.891-1.913-7.759-3.211-10.652-.649-1.447-1.365-2.632-2.166-3.453C44.078.948 43.209.503 42.239.503c-1.091 0-2.023.484-2.841 1.361-.823.881-1.522 2.152-2.13 3.695-1.216 3.085-2.038 7.183-2.791 11.225l-.248 1.339c-.657 3.558-1.288 6.979-2.122 9.469-.468 1.397-1.01 2.537-1.682 3.244-.339.357-.719.613-1.148.728a1.99 1.99 0 0 1-.737.057l.009.001v.001c-.789 0-1.434-.588-1.975-1.455-.548-.879-1.038-2.119-1.499-3.583-.701-2.228-1.347-5.023-2.021-7.941-.212-.917-.427-1.846-.647-2.773-.924-3.891-1.943-7.759-3.253-10.651-.655-1.447-1.375-2.632-2.179-3.453C16.174.949 15.303.505 14.332.505c-1.091 0-2.023.484-2.841 1.361-.823.881-1.522 2.152-2.13 3.694-1.216 3.086-2.038 7.183-2.791 11.225l-.248 1.339c-.657 3.558-1.288 6.978-2.122 9.469-.468 1.397-1.01 2.537-1.683 3.244-.339.357-.719.613-1.148.728z"/></symbol><symbol id="icon-checkout" viewBox="0 0 38 32"><path fill="none" stroke="#df3d3a" style="stroke:var(--color1,#df3d3a)" stroke-linecap="round" stroke-width="4.364" d="M2.909 18.909 13.37 29.37c.263.263.627.426 1.029.426.47 0 .888-.223 1.153-.568l.003-.003L35.636 2.909"/></symbol><symbol id="icon-close" viewBox="0 0 32 32"><path opacity=".8" d="M24.121 7.152a1.332 1.332 0 0 1 0 1.886l-6.599 6.6 6.6 6.6a1.334 1.334 0 1 1-1.887 1.886l-6.599-6.6-6.6 6.6a1.333 1.333 0 0 1-1.884-1.886l6.6-6.6-6.6-6.6a1.333 1.333 0 0 1 1.886-1.884l6.6 6.598 6.6-6.599c.241-.241.574-.39.942-.39s.701.149.942.39z"/></symbol><symbol id="icon-hamburger" viewBox="0 0 54 32"><path opacity=".8" d="M54.154 30.823H0v-4.785h54.154v4.785zm0-11.963H0v-4.785h54.154v4.785zm0-11.963H0V2.109h54.154v4.788z"/></symbol><symbol id="icon-logo" viewBox="0 0 267 32"><path fill="#e7e7e7" style="fill:var(--color3,#e7e7e7)" d="M216.019 5.299h46.101l4.549-5.285h-66.016l-18.32 31.973h42.787l3.072-5.288h-24.464l4.672-8.059h24.464l2.952-5.288h-24.349l4.549-8.053zm-35.28 8.056h-18.197l2.952-5.16c1.227-2.139 2.336-2.896 4.179-2.896 1.845 0 2.459 1.512 1.475 3.4h18.565l1.843-3.4c1.352-2.517 1.352-5.285-1.965-5.285H156.89c-2.952 0-5.288.379-7.008 3.272l-5.779 10.069c-1.6 2.896-1.475 5.288 2.459 5.288h18.808l-3.072 5.539c-.861 1.509-1.968 2.517-4.549 2.517-2.213 0-2.088-1.512-1.107-3.021h-18.44l-2.213 3.776c-1.352 2.392-.245 4.533 2.952 4.533h32.453c2.952 0 5.533-1.387 7.008-3.904l5.533-9.44c1.229-2.392.613-5.288-3.197-5.288z"/><path fill="#e7e7e7" style="fill:var(--color3,#e7e7e7)" d="M259.715 6.232c-1.499 0-2.717 1.208-2.717 2.683l-.001.085a2.712 2.712 0 1 0 5.424 0l-.001-.089v.004c0-1.475-1.211-2.683-2.704-2.683zm0 4.869h-.029c-1.2 0-2.173-.973-2.173-2.173v-.014.001c0-1.192.979-2.157 2.203-2.157a2.171 2.171 0 1 1 0 4.344zM138.813.013h-27.784c-3.813 0-8.728 0-11.68 5.285l-12.293 21.4c-1.72 2.893-.245 5.285 2.952 5.285h32.331c3.32 0 5.411-1.005 7.992-5.285l12.293-21.4c1.6-2.768-.861-5.285-3.813-5.285zM123.2 8.195l-9.221 15.987c-1.227 2.267-2.333 2.517-5.163 2.517-2.827 0-3.565-1.008-2.704-2.517l9.341-15.987c1.355-2.392 2.952-2.896 5.288-2.896s3.688.757 2.459 2.896zM90.131.013H54.478L39.113 26.698H5.182L.001 31.983h73.656c4.549 0 6.027-2.267 7.008-4.027l3.688-6.547c.984-1.76.984-3.776-.984-4.907 1.973 0 4.672-1.387 6.269-4.28l3.688-6.421c1.848-3.147-.365-5.789-3.192-5.789zm-18.32 21.523-1.84 3.021c-.493 1.008-1.355 2.141-3.445 2.141H57.43l4.675-8.056h8.848c1.6 0 1.6 1.509.861 2.893zm7.746-13.341-1.845 3.021c-.491 1.008-1.352 2.139-3.44 2.139h-9.099l4.672-8.053h8.853c1.597 0 1.597 1.509.859 2.893z"/><path fill="#e7e7e7" style="fill:var(--color3,#e7e7e7)" d="M261.101 8.213c0-.253-.109-.523-.333-.651a1.434 1.434 0 0 0-.746-.147h.005-1.32v3.019h.448V9.045h.531l.864 1.389h.517l-.92-1.389c.539-.016.955-.24.955-.835zm-1.453.456h-.493v-.907h.784c.379 0 .715.053.715.44 0 .544-.581.467-1.005.467z"/></symbol><symbol id="icon-vector" viewBox="0 0 31 32"><path fill="none" stroke="#df3d3a" style="stroke:var(--color1,#df3d3a)" stroke-width="2.783" d="M1.391 30.431 29.217 2.555m0-.001H1.391m27.826 0V30.43"/></symbol></defs></svg>