<svg aria-hidden="true" style="width:0;height:0;position:absolute;overflow:hidden" xmlns="http://www.w3.org/2000/svg"><defs><symbol id="icon-checkout" viewBox="0 0 38 32"><path fill="none" stroke="#df3d3a" style="stroke:var(--color1,#df3d3a)" stroke-linecap="round" stroke-width="4.364" d="M2.909 18.909 13.37 29.37c.263.263.627.426 1.029.426.47 0 .888-.223 1.153-.568l.003-.003L35.636 2.909"/></symbol><symbol id="icon-close" viewBox="0 0 32 32"><path opacity=".8" d="M24.121 7.152a1.332 1.332 0 0 1 0 1.886l-6.599 6.6 6.6 6.6a1.334 1.334 0 1 1-1.887 1.886l-6.599-6.6-6.6 6.6a1.333 1.333 0 0 1-1.884-1.886l6.6-6.6-6.6-6.6a1.333 1.333 0 0 1 1.886-1.884l6.6 6.598 6.6-6.599c.241-.241.574-.39.942-.39s.701.149.942.39z"/></symbol><symbol id="icon-hamburger" viewBox="0 0 54 32"><path opacity=".8" d="M54.154 30.823H0v-4.785h54.154v4.785zm0-11.963H0v-4.785h54.154v4.785zm0-11.963H0V2.109h54.154v4.788z"/></symbol><symbol id="icon-logo" viewBox="0 0 267 32"><path fill="#e7e7e7" style="fill:var(--color3,#e7e7e7)" d="M216.019 5.299h46.101l4.549-5.285h-66.016l-18.32 31.973h42.787l3.072-5.288h-24.464l4.672-8.059h24.464l2.952-5.288h-24.349l4.549-8.053zm-35.28 8.056h-18.197l2.952-5.16c1.227-2.139 2.336-2.896 4.179-2.896 1.845 0 2.459 1.512 1.475 3.4h18.565l1.843-3.4c1.352-2.517 1.352-5.285-1.965-5.285H156.89c-2.952 0-5.288.379-7.008 3.272l-5.779 10.069c-1.6 2.896-1.475 5.288 2.459 5.288h18.808l-3.072 5.539c-.861 1.509-1.968 2.517-4.549 2.517-2.213 0-2.088-1.512-1.107-3.021h-18.44l-2.213 3.776c-1.352 2.392-.245 4.533 2.952 4.533h32.453c2.952 0 5.533-1.387 7.008-3.904l5.533-9.44c1.229-2.392.613-5.288-3.197-5.288z"/><path fill="#e7e7e7" style="fill:var(--color3,#e7e7e7)" d="M259.715 6.232c-1.499 0-2.717 1.208-2.717 2.683l-.001.085a2.712 2.712 0 1 0 5.424 0l-.001-.089v.004c0-1.475-1.211-2.683-2.704-2.683zm0 4.869h-.029c-1.2 0-2.173-.973-2.173-2.173v-.014.001c0-1.192.979-2.157 2.203-2.157a2.171 2.171 0 1 1 0 4.344zM138.813.013h-27.784c-3.813 0-8.728 0-11.68 5.285l-12.293 21.4c-1.72 2.893-.245 5.285 2.952 5.285h32.331c3.32 0 5.411-1.005 7.992-5.285l12.293-21.4c1.6-2.768-.861-5.285-3.813-5.285zM123.2 8.195l-9.221 15.987c-1.227 2.267-2.333 2.517-5.163 2.517-2.827 0-3.565-1.008-2.704-2.517l9.341-15.987c1.355-2.392 2.952-2.896 5.288-2.896s3.688.757 2.459 2.896zM90.131.013H54.478L39.113 26.698H5.182L.001 31.983h73.656c4.549 0 6.027-2.267 7.008-4.027l3.688-6.547c.984-1.76.984-3.776-.984-4.907 1.973 0 4.672-1.387 6.269-4.28l3.688-6.421c1.848-3.147-.365-5.789-3.192-5.789zm-18.32 21.523-1.84 3.021c-.493 1.008-1.355 2.141-3.445 2.141H57.43l4.675-8.056h8.848c1.6 0 1.6 1.509.861 2.893zm7.746-13.341-1.845 3.021c-.491 1.008-1.352 2.139-3.44 2.139h-9.099l4.672-8.053h8.853c1.597 0 1.597 1.509.859 2.893z"/><path fill="#e7e7e7" style="fill:var(--color3,#e7e7e7)" d="M261.101 8.213c0-.253-.109-.523-.333-.651a1.434 1.434 0 0 0-.746-.147h.005-1.32v3.019h.448V9.045h.531l.864 1.389h.517l-.92-1.389c.539-.016.955-.24.955-.835zm-1.453.456h-.493v-.907h.784c.379 0 .715.053.715.44 0 .544-.581.467-1.005.467z"/></symbol><symbol id="icon-vector" viewBox="0 0 31 32"><path fill="none" stroke="#df3d3a" style="stroke:var(--color1,#df3d3a)" stroke-width="2.783" d="M1.391 30.431 29.217 2.555m0-.001H1.391m27.826 0V30.43"/></symbol></defs></svg>