<svg aria-hidden="true" style="width:0;height:0;position:absolute;overflow:hidden" xmlns="http://www.w3.org/2000/svg"><defs><symbol id="icon-sinus-mobile" viewBox="0 0 42 32"><path fill="#fff" style="fill:var(--color1,#fff)" opacity=".8" d="M1.371 31.561c-.431.116-.889.085-1.371-.097l.177-.469c.399.15.749.167 1.064.082.318-.086.622-.281.915-.589.593-.625 1.107-1.676 1.57-3.058.821-2.454 1.446-5.836 2.105-9.403v-.002l.247-1.335c.752-4.034 1.581-8.179 2.817-11.317.618-1.569 1.346-2.905 2.23-3.853.889-.952 1.947-1.519 3.208-1.519 1.141 0 2.134.528 3.001 1.412.862.881 1.612 2.126 2.278 3.597 1.332 2.942 2.361 6.854 3.284 10.743.222.936.438 1.87.651 2.79v.002c.674 2.913 1.313 5.68 2.008 7.888.457 1.453.932 2.644 1.446 3.468.362.58.72.942 1.078 1.11l.005-.014c.399.15.749.167 1.064.082.318-.086.622-.28.915-.589.593-.624 1.107-1.676 1.57-3.058.821-2.454 1.446-5.836 2.105-9.403v-.003l.003-.014.244-1.32c.751-4.034 1.581-8.179 2.817-11.317.618-1.569 1.346-2.905 2.23-3.853.889-.953 1.947-1.52 3.208-1.52 1.142 0 2.133.528 2.996 1.413.859.881 1.604 2.126 2.264 3.598 1.321 2.942 2.334 6.855 3.242 10.744.219.936.431 1.871.64 2.791v.002c.662 2.913 1.291 5.68 1.977 7.888.451 1.453.922 2.644 1.433 3.468.359.579.716.942 1.073 1.109L55.87 31c.398.15.751.167 1.072.082.323-.086.634-.282.935-.591.61-.625 1.147-1.679 1.637-3.061.874-2.463 1.565-5.861 2.293-9.443l.001-.006.263-1.292c.826-4.034 1.731-8.179 3.023-11.316.646-1.569 1.397-2.905 2.297-3.851C68.296.57 69.362.004 70.623.004c1.141 0 2.134.528 3 1.412.863.881 1.612 2.126 2.278 3.597 1.332 2.942 2.361 6.854 3.284 10.743.222.936.438 1.871.651 2.792.674 2.913 1.313 5.679 2.008 7.887.457 1.453.932 2.644 1.446 3.468.521.835 1.035 1.219 1.55 1.219v.501c-.79 0-1.434-.588-1.975-1.455-.548-.879-1.039-2.119-1.499-3.583-.701-2.228-1.347-5.023-2.021-7.941l-.001-.004c-.888-4.274-1.111-5.206-1.337-6.136l.691 3.366c-.923-3.891-1.943-7.759-3.253-10.651-.655-1.447-1.375-2.632-2.179-3.453C72.465.948 71.593.504 70.624.504c-1.091 0-2.034.485-2.869 1.362-.84.882-1.562 2.154-2.197 3.697-1.272 3.086-2.168 7.184-2.996 11.226l-.265 1.3c-.726 3.572-1.424 7.008-2.311 9.507-.496 1.398-1.063 2.537-1.751 3.243-.347.356-.733.611-1.166.726a2.013 2.013 0 0 1-.743.056l.009.001v.002c-.79 0-1.432-.588-1.97-1.456-.545-.879-1.031-2.119-1.485-3.583-.692-2.229-1.327-5.024-1.991-7.941-.208-.917-.419-1.846-.636-2.774-.908-3.891-1.913-7.759-3.211-10.652-.649-1.447-1.365-2.632-2.166-3.453C44.078.948 43.209.503 42.239.503c-1.091 0-2.023.484-2.841 1.361-.823.881-1.522 2.152-2.13 3.695-1.216 3.085-2.038 7.183-2.791 11.225l-.248 1.339c-.657 3.558-1.288 6.979-2.122 9.469-.468 1.397-1.01 2.537-1.682 3.244-.339.357-.719.613-1.148.728a1.99 1.99 0 0 1-.737.057l.009.001v.001c-.789 0-1.434-.588-1.975-1.455-.548-.879-1.038-2.119-1.499-3.583-.701-2.228-1.347-5.023-2.021-7.941-.212-.917-.427-1.846-.647-2.773-.924-3.891-1.943-7.759-3.253-10.651-.655-1.447-1.375-2.632-2.179-3.453C16.174.949 15.303.505 14.332.505c-1.091 0-2.023.484-2.841 1.361-.823.881-1.522 2.152-2.13 3.694-1.216 3.086-2.038 7.183-2.791 11.225l-.248 1.339c-.657 3.558-1.288 6.978-2.122 9.469-.468 1.397-1.01 2.537-1.683 3.244-.339.357-.719.613-1.148.728z"/></symbol><symbol id="icon-checkout" viewBox="0 0 38 32"><path fill="none" stroke="#df3d3a" style="stroke:var(--color1,#df3d3a)" stroke-linecap="round" stroke-width="4.364" d="M2.909 18.909 13.37 29.37c.263.263.627.426 1.029.426.47 0 .888-.223 1.153-.568l.003-.003L35.636 2.909"/></symbol><symbol id="icon-close" viewBox="0 0 32 32"><path opacity=".8" d="M24.121 7.152a1.332 1.332 0 0 1 0 1.886l-6.599 6.6 6.6 6.6a1.334 1.334 0 1 1-1.887 1.886l-6.599-6.6-6.6 6.6a1.333 1.333 0 0 1-1.884-1.886l6.6-6.6-6.6-6.6a1.333 1.333 0 0 1 1.886-1.884l6.6 6.598 6.6-6.599c.241-.241.574-.39.942-.39s.701.149.942.39z"/></symbol><symbol id="icon-hamburger" viewBox="0 0 54 32"><path opacity=".8" d="M54.154 30.823H0v-4.785h54.154v4.785zm0-11.963H0v-4.785h54.154v4.785zm0-11.963H0V2.109h54.154v4.788z"/></symbol><symbol id="icon-logo" viewBox="0 0 267 32"><path fill="#e7e7e7" style="fill:var(--color3,#e7e7e7)" d="M216.019 5.299h46.101l4.549-5.285h-66.016l-18.32 31.973h42.787l3.072-5.288h-24.464l4.672-8.059h24.464l2.952-5.288h-24.349l4.549-8.053zm-35.28 8.056h-18.197l2.952-5.16c1.227-2.139 2.336-2.896 4.179-2.896 1.845 0 2.459 1.512 1.475 3.4h18.565l1.843-3.4c1.352-2.517 1.352-5.285-1.965-5.285H156.89c-2.952 0-5.288.379-7.008 3.272l-5.779 10.069c-1.6 2.896-1.475 5.288 2.459 5.288h18.808l-3.072 5.539c-.861 1.509-1.968 2.517-4.549 2.517-2.213 0-2.088-1.512-1.107-3.021h-18.44l-2.213 3.776c-1.352 2.392-.245 4.533 2.952 4.533h32.453c2.952 0 5.533-1.387 7.008-3.904l5.533-9.44c1.229-2.392.613-5.288-3.197-5.288z"/><path fill="#e7e7e7" style="fill:var(--color3,#e7e7e7)" d="M259.715 6.232c-1.499 0-2.717 1.208-2.717 2.683l-.001.085a2.712 2.712 0 1 0 5.424 0l-.001-.089v.004c0-1.475-1.211-2.683-2.704-2.683zm0 4.869h-.029c-1.2 0-2.173-.973-2.173-2.173v-.014.001c0-1.192.979-2.157 2.203-2.157a2.171 2.171 0 1 1 0 4.344zM138.813.013h-27.784c-3.813 0-8.728 0-11.68 5.285l-12.293 21.4c-1.72 2.893-.245 5.285 2.952 5.285h32.331c3.32 0 5.411-1.005 7.992-5.285l12.293-21.4c1.6-2.768-.861-5.285-3.813-5.285zM123.2 8.195l-9.221 15.987c-1.227 2.267-2.333 2.517-5.163 2.517-2.827 0-3.565-1.008-2.704-2.517l9.341-15.987c1.355-2.392 2.952-2.896 5.288-2.896s3.688.757 2.459 2.896zM90.131.013H54.478L39.113 26.698H5.182L.001 31.983h73.656c4.549 0 6.027-2.267 7.008-4.027l3.688-6.547c.984-1.76.984-3.776-.984-4.907 1.973 0 4.672-1.387 6.269-4.28l3.688-6.421c1.848-3.147-.365-5.789-3.192-5.789zm-18.32 21.523-1.84 3.021c-.493 1.008-1.355 2.141-3.445 2.141H57.43l4.675-8.056h8.848c1.6 0 1.6 1.509.861 2.893zm7.746-13.341-1.845 3.021c-.491 1.008-1.352 2.139-3.44 2.139h-9.099l4.672-8.053h8.853c1.597 0 1.597 1.509.859 2.893z"/><path fill="#e7e7e7" style="fill:var(--color3,#e7e7e7)" d="M261.101 8.213c0-.253-.109-.523-.333-.651a1.434 1.434 0 0 0-.746-.147h.005-1.32v3.019h.448V9.045h.531l.864 1.389h.517l-.92-1.389c.539-.016.955-.24.955-.835zm-1.453.456h-.493v-.907h.784c.379 0 .715.053.715.44 0 .544-.581.467-1.005.467z"/></symbol><symbol id="icon-vector" viewBox="0 0 31 32"><path fill="none" stroke="#df3d3a" style="stroke:var(--color1,#df3d3a)" stroke-width="2.783" d="M1.391 30.431 29.217 2.555m0-.001H1.391m27.826 0V30.43"/></symbol><symbol id="icon-sign" viewBox="0 0 16 32"><path fill="#e7e7e7" d="M6.132 21.992c0-1.562.164-2.832.49-3.808.324-.976 1.12-2.22 2.382-3.73l1.368-1.76c.91-1.274 1.366-2.602 1.366-3.984 0-1.366-.286-2.434-.86-3.202-.56-.78-1.366-1.172-2.42-1.172-.99 0-1.818.352-2.48 1.054C5.326 6.094 5 7.038 5 8.222H1.562c.026-2.148.678-3.86 1.954-5.136s2.922-1.914 4.94-1.914c2.098 0 3.744.658 4.942 1.972 1.2 1.316 1.798 3.132 1.798 5.45 0 2.214-.906 4.434-2.716 6.66l-1.796 2.166c-.742 1.054-1.114 2.578-1.114 4.57H6.132zm1.876 4.12c.65 0 1.14.204 1.464.606.34.392.508.88.508 1.466s-.168 1.074-.508 1.464c-.324.378-.814.566-1.464.566-.664 0-1.16-.188-1.484-.566-.314-.39-.47-.88-.47-1.464 0-.586.156-1.074.47-1.466.324-.402.82-.604 1.484-.604z"/></symbol><symbol id="icon-01" viewBox="0 0 32 32"><path fill="#e7e7e7" d="M15.48 13.516v4.336c0 2.33-.18 4.296-.546 5.898-.352 1.6-.86 2.89-1.524 3.868-.664.976-1.464 1.686-2.402 2.128a7.219 7.219 0 0 1-3.006.645l-.127-.001h.006c-.91 0-1.764-.136-2.558-.41a5.81 5.81 0 0 1-2.111-1.309l.001.001c-.624-.612-1.158-1.406-1.6-2.382-.444-.978-.782-2.162-1.016-3.556-.234-1.392-.352-3.02-.352-4.882v-4.336c0-2.332.182-4.284.546-5.86.366-1.576.88-2.84 1.544-3.788.678-.964 1.478-1.654 2.402-2.072.938-.416 1.98-.624 3.126-.624.924 0 1.776.136 2.558.41.794.26 1.498.684 2.11 1.27.624.572 1.158 1.34 1.6 2.304.444.95.776 2.116.996 3.496.236 1.38.352 3 .352 4.864zm-3.438 4.92v-5.524c0-1.276-.058-2.396-.174-3.36a13.57 13.57 0 0 0-.534-2.596l.026.096a5.092 5.092 0 0 0-.868-1.691l.008.011c-.306-.4-.7-.718-1.153-.928l-.019-.008a3.344 3.344 0 0 0-1.422-.312h-.044.002c-.664 0-1.258.16-1.778.488-.508.312-.944.814-1.308 1.504-.352.69-.62 1.594-.8 2.714-.184 1.12-.274 2.48-.274 4.082v5.528c0 1.276.058 2.4.174 3.38.132.974.306 1.82.528 2.538.234.702.52 1.282.86 1.738s.728.794 1.172 1.016a3.35 3.35 0 0 0 1.444.312c.69 0 1.29-.17 1.798-.508.52-.34.956-.866 1.308-1.582.352-.73.612-1.66.78-2.792.184-1.146.274-2.514.274-4.102zm18.3-17.03V30h-3.456V5.918L20.91 8.574v-3.26l8.906-3.91h.528z"/></symbol><symbol id="icon-02" viewBox="0 0 36 32"><path fill="#e7e7e7" d="M15.48 13.516v4.336c0 2.33-.18 4.296-.546 5.898-.352 1.6-.86 2.89-1.524 3.868-.664.976-1.464 1.686-2.402 2.128a7.219 7.219 0 0 1-3.006.645l-.127-.001h.006c-.91 0-1.764-.136-2.558-.41a5.81 5.81 0 0 1-2.111-1.309l.001.001c-.624-.612-1.158-1.406-1.6-2.382-.444-.978-.782-2.162-1.016-3.556-.234-1.392-.352-3.02-.352-4.882v-4.336c0-2.332.182-4.284.546-5.86.366-1.576.88-2.84 1.544-3.788.678-.964 1.478-1.654 2.402-2.072.938-.416 1.98-.624 3.126-.624.924 0 1.776.136 2.558.41.794.26 1.498.684 2.11 1.27.624.572 1.158 1.34 1.6 2.304.444.95.776 2.116.996 3.496.236 1.38.352 3 .352 4.864zm-3.438 4.92v-5.524c0-1.276-.058-2.396-.174-3.36a13.57 13.57 0 0 0-.534-2.596l.026.096a5.092 5.092 0 0 0-.868-1.691l.008.011c-.306-.4-.7-.718-1.153-.928l-.019-.008a3.344 3.344 0 0 0-1.422-.312h-.044.002c-.664 0-1.258.16-1.778.488-.508.312-.944.814-1.308 1.504-.352.69-.62 1.594-.8 2.714-.184 1.12-.274 2.48-.274 4.082v5.528c0 1.276.058 2.4.174 3.38.132.974.306 1.82.528 2.538.234.702.52 1.282.86 1.738s.728.794 1.172 1.016a3.35 3.35 0 0 0 1.444.312c.69 0 1.29-.17 1.798-.508.52-.34.956-.866 1.308-1.582.352-.73.612-1.66.78-2.792.184-1.146.274-2.514.274-4.102zm23.908 8.596V30h-15.9v-2.598l7.832-10.37c.964-1.276 1.7-2.358 2.208-3.242.508-.9.86-1.7 1.054-2.404A8.106 8.106 0 0 0 31.44 9.2c0-.94-.15-1.784-.45-2.54a4.284 4.284 0 0 0-1.301-1.83l-.007-.006a3.203 3.203 0 0 0-2.074-.684h.004c-1.056 0-1.92.248-2.6.742-.662.482-1.15 1.16-1.464 2.032-.312.872-.468 1.876-.468 3.008h-3.458c0-1.6.292-3.066.878-4.394a7.348 7.348 0 0 1 2.649-3.147l.027-.017c1.184-.794 2.662-1.192 4.434-1.192 1.522 0 2.824.32 3.906.956A6.207 6.207 0 0 1 34 4.75l.016.036c.586 1.132.88 2.46.88 3.984 0 .832-.12 1.68-.354 2.54a14.186 14.186 0 0 1-.973 2.622l.037-.084c-.392.846-.854 1.68-1.388 2.5s-1.106 1.628-1.718 2.42l-6.308 8.264H35.95z"/></symbol><symbol id="icon-03" viewBox="0 0 36 32"><path fill="#e7e7e7" d="M15.48 17.872c0 4.192-.612 7.33-1.836 9.414-1.224 2.07-3.144 3.104-5.76 3.104-2.54 0-4.434-.996-5.684-2.988S.3 22.416.246 18.42v-4.884c0-4.154.612-7.254 1.836-9.298C3.32 2.194 5.24 1.172 7.842 1.172c2.566 0 4.46.97 5.686 2.91 1.236 1.94 1.888 4.876 1.952 8.808v4.98zm-3.456-4.942c0-3.008-.332-5.22-.996-6.64-.664-1.434-1.726-2.15-3.184-2.15-1.42 0-2.46.704-3.126 2.11-.664 1.394-1.008 3.502-1.034 6.328v5.86c0 2.994.344 5.246 1.034 6.758.69 1.496 1.746 2.246 3.164 2.246 1.408 0 2.442-.71 3.106-2.13s1.01-3.586 1.036-6.504v-5.88zm12.44 1.094h2.208c1.42 0 2.512-.436 3.28-1.31.77-.872 1.154-2.062 1.154-3.574 0-3.332-1.29-5-3.868-5-1.236 0-2.206.45-2.91 1.348-.702.9-1.054 2.078-1.054 3.536h-3.438c0-2.28.69-4.154 2.07-5.626 1.394-1.484 3.17-2.226 5.334-2.226 2.24 0 4.018.704 5.332 2.11 1.316 1.392 1.972 3.372 1.972 5.936a7.032 7.032 0 0 1-1.034 3.692c-.678 1.132-1.562 1.966-2.656 2.5 2.68.99 4.022 3.21 4.022 6.66 0 2.54-.708 4.564-2.128 6.074-1.406 1.498-3.248 2.246-5.528 2.246-2.252 0-4.074-.708-5.468-2.128-1.38-1.432-2.07-3.354-2.07-5.762h3.456c0 1.51.366 2.714 1.094 3.614.73.884 1.726 1.328 2.988 1.328 1.29 0 2.312-.436 3.068-1.31.768-.872 1.152-2.2 1.152-3.984 0-3.45-1.634-5.176-4.902-5.176h-2.072v-2.948z"/></symbol><symbol id="icon-04" viewBox="0 0 38 32"><path fill="#e7e7e7" d="M15.48 13.516v4.336c0 2.33-.18 4.296-.546 5.898-.352 1.6-.86 2.89-1.524 3.868-.664.976-1.464 1.686-2.402 2.128a7.219 7.219 0 0 1-3.006.645l-.127-.001h.006c-.91 0-1.764-.136-2.558-.41a5.81 5.81 0 0 1-2.111-1.309l.001.001c-.624-.612-1.158-1.406-1.6-2.382-.444-.978-.782-2.162-1.016-3.556-.234-1.392-.352-3.02-.352-4.882v-4.336c0-2.332.182-4.284.546-5.86.366-1.576.88-2.84 1.544-3.788.678-.964 1.478-1.654 2.402-2.072.938-.416 1.98-.624 3.126-.624.924 0 1.776.136 2.558.41.794.26 1.498.684 2.11 1.27.624.572 1.158 1.34 1.6 2.304.444.95.776 2.116.996 3.496.236 1.38.352 3 .352 4.864zm-3.438 4.92v-5.524c0-1.276-.058-2.396-.174-3.36a13.57 13.57 0 0 0-.534-2.596l.026.096a5.092 5.092 0 0 0-.868-1.691l.008.011c-.306-.4-.7-.718-1.153-.928l-.019-.008a3.344 3.344 0 0 0-1.422-.312h-.044.002c-.664 0-1.258.16-1.778.488-.508.312-.944.814-1.308 1.504-.352.69-.62 1.594-.8 2.714-.184 1.12-.274 2.48-.274 4.082v5.528c0 1.276.058 2.4.174 3.38.132.974.306 1.82.528 2.538.234.702.52 1.282.86 1.738s.728.794 1.172 1.016a3.35 3.35 0 0 0 1.444.312c.69 0 1.29-.17 1.798-.508.52-.34.956-.866 1.308-1.582.352-.73.612-1.66.78-2.792.184-1.146.274-2.514.274-4.102zm24.28 1.994v2.968H18.936V21.27L29.504 1.56h2.774l-2.774 5.704-6.72 13.164H36.32zM33.154 1.56V30H29.7V1.562h3.456z"/></symbol></defs></svg>