<svg aria-hidden="true" style="position: absolute; width: 0; height: 0; overflow: hidden;" version="1.1" xmlns="http://www.w3.org/2000/svg" xmlns:xlink="http://www.w3.org/1999/xlink">
<defs>
<symbol id="icon-sinus-mobile" viewBox="0 0 42 32">
<path fill="#fff" style="fill: var(--color1, #fff)" opacity="0.8" d="M1.371 31.561c-0.431 0.116-0.889 0.085-1.371-0.097l0.177-0.469c0.399 0.15 0.749 0.167 1.064 0.082 0.318-0.086 0.622-0.281 0.915-0.589 0.593-0.625 1.107-1.676 1.57-3.058 0.821-2.454 1.446-5.836 2.105-9.403v-0.002l0.247-1.335c0.752-4.034 1.581-8.179 2.817-11.317 0.618-1.569 1.346-2.905 2.23-3.853 0.889-0.952 1.947-1.519 3.208-1.519 1.141 0 2.134 0.528 3.001 1.412 0.862 0.881 1.612 2.126 2.278 3.597 1.332 2.942 2.361 6.854 3.284 10.743 0.222 0.936 0.438 1.87 0.651 2.79l0 0.002c0.674 2.913 1.313 5.68 2.008 7.888 0.457 1.453 0.932 2.644 1.446 3.468 0.362 0.58 0.72 0.942 1.078 1.11l0.005-0.014c0.399 0.15 0.749 0.167 1.064 0.082 0.318-0.086 0.622-0.28 0.915-0.589 0.593-0.624 1.107-1.676 1.57-3.058 0.821-2.454 1.446-5.836 2.105-9.403v-0.003l0.003-0.014c0.081-0.438 0.162-0.878 0.244-1.32 0.751-4.034 1.581-8.179 2.817-11.317 0.618-1.569 1.346-2.905 2.23-3.853 0.889-0.953 1.947-1.52 3.208-1.52 1.142 0 2.133 0.528 2.996 1.413 0.859 0.881 1.604 2.126 2.264 3.598 1.321 2.942 2.334 6.855 3.242 10.744 0.219 0.936 0.431 1.871 0.64 2.791l0 0.002c0.662 2.913 1.291 5.68 1.977 7.888 0.451 1.453 0.922 2.644 1.433 3.468 0.359 0.579 0.716 0.942 1.073 1.109l0.005-0.015c0.398 0.15 0.751 0.167 1.072 0.082 0.323-0.086 0.634-0.282 0.935-0.591 0.61-0.625 1.147-1.679 1.637-3.061 0.874-2.463 1.565-5.861 2.293-9.443l0.001-0.006 0.263-1.292c0.826-4.034 1.731-8.179 3.023-11.316 0.646-1.569 1.397-2.905 2.297-3.851 0.905-0.952 1.971-1.518 3.232-1.518 1.141 0 2.134 0.528 3 1.412 0.863 0.881 1.612 2.126 2.278 3.597 1.332 2.942 2.361 6.854 3.284 10.743 0.222 0.936 0.438 1.871 0.651 2.792 0.674 2.913 1.313 5.679 2.008 7.887 0.457 1.453 0.932 2.644 1.446 3.468 0.521 0.835 1.035 1.219 1.55 1.219v0.501c-0.79 0-1.434-0.588-1.975-1.455-0.548-0.879-1.039-2.119-1.499-3.583-0.701-2.228-1.347-5.023-2.021-7.941l-0.001-0.004c-0.888-4.274-1.111-5.206-1.337-6.136l0.691 3.366c-0.923-3.891-1.943-7.759-3.253-10.651-0.655-1.447-1.375-2.632-2.179-3.453-0.801-0.818-1.673-1.262-2.642-1.262-1.091 0-2.034 0.485-2.869 1.362-0.84 0.882-1.562 2.154-2.197 3.697-1.272 3.086-2.168 7.184-2.996 11.226-0.089 0.434-0.177 0.868-0.265 1.3-0.726 3.572-1.424 7.008-2.311 9.507-0.496 1.398-1.063 2.537-1.751 3.243-0.347 0.356-0.733 0.611-1.166 0.726-0.157 0.043-0.338 0.068-0.524 0.068-0.074 0-0.147-0.004-0.219-0.012l0.009 0.001v0.002c-0.79 0-1.432-0.588-1.97-1.456-0.545-0.879-1.031-2.119-1.485-3.583-0.692-2.229-1.327-5.024-1.991-7.941v-0c-0.208-0.917-0.419-1.846-0.636-2.774-0.908-3.891-1.913-7.759-3.211-10.652-0.649-1.447-1.365-2.632-2.166-3.453-0.798-0.817-1.667-1.262-2.637-1.262-1.091 0-2.023 0.484-2.841 1.361-0.823 0.881-1.522 2.152-2.13 3.695-1.216 3.085-2.038 7.183-2.791 11.225-0.083 0.447-0.166 0.894-0.248 1.339-0.657 3.558-1.288 6.979-2.122 9.469-0.468 1.397-1.010 2.537-1.682 3.244-0.339 0.357-0.719 0.613-1.148 0.728-0.156 0.043-0.336 0.068-0.521 0.068-0.073 0-0.145-0.004-0.216-0.011l0.009 0.001v0.001c-0.789 0-1.434-0.588-1.975-1.455-0.548-0.879-1.038-2.119-1.499-3.583-0.701-2.228-1.347-5.023-2.021-7.941v-0c-0.212-0.917-0.427-1.846-0.647-2.773-0.924-3.891-1.943-7.759-3.253-10.651-0.655-1.447-1.375-2.632-2.179-3.453-0.801-0.818-1.672-1.262-2.643-1.262-1.091 0-2.023 0.484-2.841 1.361-0.823 0.881-1.522 2.152-2.13 3.694-1.216 3.086-2.038 7.183-2.791 11.225-0.083 0.447-0.166 0.894-0.248 1.339-0.657 3.558-1.288 6.978-2.122 9.469-0.468 1.397-1.010 2.537-1.683 3.244-0.339 0.357-0.719 0.613-1.148 0.728z"></path>
</symbol>
<symbol id="icon-checkout" viewBox="0 0 38 32">
<path fill="none" stroke="#df3d3a" style="stroke: var(--color1, #df3d3a)" stroke-linejoin="miter" stroke-linecap="round" stroke-miterlimit="4" stroke-width="4.3636" d="M2.909 18.909l10.461 10.461c0.263 0.263 0.627 0.426 1.029 0.426 0.47 0 0.888-0.223 1.153-0.568l0.003-0.003 20.081-26.316"></path>
</symbol>
<symbol id="icon-close" viewBox="0 0 32 32">
<path  opacity="0.8" d="M24.121 7.152c0.241 0.241 0.39 0.575 0.39 0.943s-0.149 0.701-0.39 0.943l-6.599 6.6 6.6 6.6c0.241 0.241 0.39 0.575 0.39 0.943 0 0.737-0.597 1.334-1.334 1.334-0.368 0-0.702-0.149-0.943-0.391l-6.599-6.6-6.6 6.6c-0.24 0.232-0.566 0.374-0.926 0.374-0.736 0-1.333-0.597-1.333-1.333 0-0.36 0.143-0.687 0.375-0.927l6.6-6.6-6.6-6.6c-0.232-0.24-0.374-0.566-0.374-0.926 0-0.736 0.597-1.333 1.333-1.333 0.36 0 0.687 0.143 0.927 0.375l6.6 6.598 6.6-6.599c0.241-0.241 0.574-0.39 0.942-0.39s0.701 0.149 0.942 0.39l-0-0z"></path>
</symbol>
<symbol id="icon-hamburger" viewBox="0 0 54 32">
<path  opacity="0.8" d="M54.154 30.823h-54.154v-4.785h54.154v4.785zM54.154 18.86h-54.154v-4.785h54.154v4.785zM54.154 6.897h-54.154v-4.788h54.154v4.788z"></path>
</symbol>
<symbol id="icon-logo" viewBox="0 0 267 32">
<path fill="#e7e7e7" style="fill: var(--color3, #e7e7e7)" d="M216.019 5.299h46.101l4.549-5.285h-66.016l-18.32 31.973h42.787l3.072-5.288h-24.464l4.672-8.059h24.464l2.952-5.288h-24.349l4.549-8.053zM180.739 13.355h-18.197l2.952-5.16c1.227-2.139 2.336-2.896 4.179-2.896 1.845 0 2.459 1.512 1.475 3.4h18.565l1.843-3.4c1.352-2.517 1.352-5.285-1.965-5.285h-32.701c-2.952 0-5.288 0.379-7.008 3.272l-5.779 10.069c-1.6 2.896-1.475 5.288 2.459 5.288h18.808l-3.072 5.539c-0.861 1.509-1.968 2.517-4.549 2.517-2.213 0-2.088-1.512-1.107-3.021h-18.44l-2.213 3.776c-1.352 2.392-0.245 4.533 2.952 4.533h32.453c2.952 0 5.533-1.387 7.008-3.904l5.533-9.44c1.229-2.392 0.613-5.288-3.197-5.288z"></path>
<path fill="#e7e7e7" style="fill: var(--color3, #e7e7e7)" d="M259.715 6.232c-1.499 0-2.717 1.208-2.717 2.683-0.001 0.025-0.001 0.055-0.001 0.085 0 1.498 1.214 2.712 2.712 2.712s2.712-1.214 2.712-2.712c0-0.030-0-0.060-0.001-0.089l0 0.004c0-1.475-1.211-2.683-2.704-2.683zM259.715 11.101c-0.009 0-0.019 0-0.029 0-1.2 0-2.173-0.973-2.173-2.173 0-0.005 0-0.009 0-0.014v0.001c0-1.192 0.979-2.157 2.203-2.157 1.2 0 2.172 0.972 2.172 2.172s-0.972 2.172-2.172 2.172v0zM138.813 0.013h-27.784c-3.813 0-8.728 0-11.68 5.285l-12.293 21.4c-1.72 2.893-0.245 5.285 2.952 5.285h32.331c3.32 0 5.411-1.005 7.992-5.285l12.293-21.4c1.6-2.768-0.861-5.285-3.813-5.285zM123.2 8.195l-9.221 15.987c-1.227 2.267-2.333 2.517-5.163 2.517-2.827 0-3.565-1.008-2.704-2.517l9.341-15.987c1.355-2.392 2.952-2.896 5.288-2.896s3.688 0.757 2.459 2.896zM90.131 0.013h-35.653l-15.365 26.685h-33.931l-5.181 5.285h73.656c4.549 0 6.027-2.267 7.008-4.027l3.688-6.547c0.984-1.76 0.984-3.776-0.984-4.907 1.973 0 4.672-1.387 6.269-4.28l3.688-6.421c1.848-3.147-0.365-5.789-3.192-5.789zM71.811 21.536l-1.84 3.021c-0.493 1.008-1.355 2.141-3.445 2.141h-9.096l4.675-8.056h8.848c1.6 0 1.6 1.509 0.861 2.893zM79.557 8.195l-1.845 3.021c-0.491 1.008-1.352 2.139-3.44 2.139h-9.099l4.672-8.053h8.853c1.597 0 1.597 1.509 0.859 2.893z"></path>
<path fill="#e7e7e7" style="fill: var(--color3, #e7e7e7)" d="M261.101 8.213c0-0.253-0.109-0.523-0.333-0.651-0.188-0.095-0.41-0.15-0.644-0.15-0.034 0-0.068 0.001-0.102 0.003l0.005-0h-1.32v3.019h0.448v-1.389h0.531l0.864 1.389h0.517l-0.92-1.389c0.539-0.016 0.955-0.24 0.955-0.835zM259.648 8.669h-0.493v-0.907h0.784c0.379 0 0.715 0.053 0.715 0.44 0 0.544-0.581 0.467-1.005 0.467z"></path>
</symbol>
<symbol id="icon-vector" viewBox="0 0 31 32">
<path fill="none" stroke="#df3d3a" style="stroke: var(--color1, #df3d3a)" stroke-linejoin="miter" stroke-linecap="butt" stroke-miterlimit="4" stroke-width="2.7826" d="M1.391 30.431l27.826-27.876M29.217 2.554h-27.826M29.217 2.554v27.876"></path>
</symbol>
</defs>
</svg>
