<svg aria-hidden="true" style="position: absolute; width: 0; height: 0; overflow: hidden;" version="1.1" xmlns="http://www.w3.org/2000/svg" xmlns:xlink="http://www.w3.org/1999/xlink">
<defs>
<symbol id="icon-checkout" viewBox="0 0 38 32">
<path fill="none" stroke="#df3d3a" style="stroke: var(--color1, #df3d3a)" stroke-linejoin="miter" stroke-linecap="round" stroke-miterlimit="4" stroke-width="4.3636" d="M2.909 18.909l10.461 10.461c0.263 0.263 0.627 0.426 1.029 0.426 0.47 0 0.888-0.223 1.153-0.568l0.003-0.003 20.081-26.316"></path>
</symbol>
<symbol id="icon-close" viewBox="0 0 32 32">
<path fill="#fff" style="fill: var(--color2, #fff)" opacity="0.8" d="M24.121 7.152c0.241 0.241 0.39 0.575 0.39 0.943s-0.149 0.701-0.39 0.943l-6.599 6.6 6.6 6.6c0.241 0.241 0.39 0.575 0.39 0.943 0 0.737-0.597 1.334-1.334 1.334-0.368 0-0.702-0.149-0.943-0.391l-6.599-6.6-6.6 6.6c-0.24 0.232-0.566 0.374-0.926 0.374-0.736 0-1.333-0.597-1.333-1.333 0-0.36 0.143-0.687 0.375-0.927l6.6-6.6-6.6-6.6c-0.232-0.24-0.374-0.566-0.374-0.926 0-0.736 0.597-1.333 1.333-1.333 0.36 0 0.687 0.143 0.927 0.375l6.6 6.598 6.6-6.599c0.241-0.241 0.574-0.39 0.942-0.39s0.701 0.149 0.942 0.39l-0-0z"></path>
</symbol>
<symbol id="icon-hamburger" viewBox="0 0 54 32">
<path fill="#fff" style="fill: var(--color2, #fff)" opacity="0.8" d="M54.154 30.823h-54.154v-4.785h54.154v4.785zM54.154 18.86h-54.154v-4.785h54.154v4.785zM54.154 6.897h-54.154v-4.788h54.154v4.788z"></path>
</symbol>
<symbol id="icon-logo" viewBox="0 0 267 32">
<path fill="#e7e7e7" style="fill: var(--color3, #e7e7e7)" d="M216.019 5.299h46.101l4.549-5.285h-66.016l-18.32 31.973h42.787l3.072-5.288h-24.464l4.672-8.059h24.464l2.952-5.288h-24.349l4.549-8.053zM180.739 13.355h-18.197l2.952-5.16c1.227-2.139 2.336-2.896 4.179-2.896 1.845 0 2.459 1.512 1.475 3.4h18.565l1.843-3.4c1.352-2.517 1.352-5.285-1.965-5.285h-32.701c-2.952 0-5.288 0.379-7.008 3.272l-5.779 10.069c-1.6 2.896-1.475 5.288 2.459 5.288h18.808l-3.072 5.539c-0.861 1.509-1.968 2.517-4.549 2.517-2.213 0-2.088-1.512-1.107-3.021h-18.44l-2.213 3.776c-1.352 2.392-0.245 4.533 2.952 4.533h32.453c2.952 0 5.533-1.387 7.008-3.904l5.533-9.44c1.229-2.392 0.613-5.288-3.197-5.288z"></path>
<path fill="#e7e7e7" style="fill: var(--color3, #e7e7e7)" d="M259.715 6.232c-1.499 0-2.717 1.208-2.717 2.683-0.001 0.025-0.001 0.055-0.001 0.085 0 1.498 1.214 2.712 2.712 2.712s2.712-1.214 2.712-2.712c0-0.030-0-0.060-0.001-0.089l0 0.004c0-1.475-1.211-2.683-2.704-2.683zM259.715 11.101c-0.009 0-0.019 0-0.029 0-1.2 0-2.173-0.973-2.173-2.173 0-0.005 0-0.009 0-0.014v0.001c0-1.192 0.979-2.157 2.203-2.157 1.2 0 2.172 0.972 2.172 2.172s-0.972 2.172-2.172 2.172v0zM138.813 0.013h-27.784c-3.813 0-8.728 0-11.68 5.285l-12.293 21.4c-1.72 2.893-0.245 5.285 2.952 5.285h32.331c3.32 0 5.411-1.005 7.992-5.285l12.293-21.4c1.6-2.768-0.861-5.285-3.813-5.285zM123.2 8.195l-9.221 15.987c-1.227 2.267-2.333 2.517-5.163 2.517-2.827 0-3.565-1.008-2.704-2.517l9.341-15.987c1.355-2.392 2.952-2.896 5.288-2.896s3.688 0.757 2.459 2.896zM90.131 0.013h-35.653l-15.365 26.685h-33.931l-5.181 5.285h73.656c4.549 0 6.027-2.267 7.008-4.027l3.688-6.547c0.984-1.76 0.984-3.776-0.984-4.907 1.973 0 4.672-1.387 6.269-4.28l3.688-6.421c1.848-3.147-0.365-5.789-3.192-5.789zM71.811 21.536l-1.84 3.021c-0.493 1.008-1.355 2.141-3.445 2.141h-9.096l4.675-8.056h8.848c1.6 0 1.6 1.509 0.861 2.893zM79.557 8.195l-1.845 3.021c-0.491 1.008-1.352 2.139-3.44 2.139h-9.099l4.672-8.053h8.853c1.597 0 1.597 1.509 0.859 2.893z"></path>
<path fill="#e7e7e7" style="fill: var(--color3, #e7e7e7)" d="M261.101 8.213c0-0.253-0.109-0.523-0.333-0.651-0.188-0.095-0.41-0.15-0.644-0.15-0.034 0-0.068 0.001-0.102 0.003l0.005-0h-1.32v3.019h0.448v-1.389h0.531l0.864 1.389h0.517l-0.92-1.389c0.539-0.016 0.955-0.24 0.955-0.835zM259.648 8.669h-0.493v-0.907h0.784c0.379 0 0.715 0.053 0.715 0.44 0 0.544-0.581 0.467-1.005 0.467z"></path>
</symbol>
<symbol id="icon-vector" viewBox="0 0 31 32">
<path fill="none" stroke="#df3d3a" style="stroke: var(--color1, #df3d3a)" stroke-linejoin="miter" stroke-linecap="butt" stroke-miterlimit="4" stroke-width="2.7826" d="M1.391 30.431l27.826-27.876M29.217 2.554h-27.826M29.217 2.554v27.876"></path>
</symbol>
<symbol id="icon-arrow" viewBox="0 0 31 32">
<path fill="#DF3D3A" stroke="#df3d3a" style="stroke: var(--color1, #df3d3a)" stroke-linejoin="miter" stroke-linecap="butt" stroke-miterlimit="4" stroke-width="2.7826" d="M1.391 29.782l27.826-27.826M29.217 1.956h-27.826M29.217 1.956v27.826"></path>
</symbol>
</defs>
</svg>
