<svg aria-hidden="true" style="position: absolute; width: 0; height: 0; overflow: hidden;" version="1.1" xmlns="http://www.w3.org/2000/svg" xmlns:xlink="http://www.w3.org/1999/xlink">
<defs>
<symbol id="icon-checkout" viewBox="0 0 38 32">
<path fill="none" stroke="#df3d3a" style="stroke: var(--color1, #df3d3a)" stroke-linejoin="miter" stroke-linecap="round" stroke-miterlimit="4" stroke-width="4.3636" d="M2.909 18.909l10.461 10.461c0.263 0.263 0.627 0.426 1.029 0.426 0.47 0 0.888-0.223 1.153-0.568l0.003-0.003 20.081-26.316"></path>
</symbol>
<symbol id="icon-close" viewBox="0 0 32 32">
<path  opacity="0.8" d="M24.121 7.152c0.241 0.241 0.39 0.575 0.39 0.943s-0.149 0.701-0.39 0.943l-6.599 6.6 6.6 6.6c0.241 0.241 0.39 0.575 0.39 0.943 0 0.737-0.597 1.334-1.334 1.334-0.368 0-0.702-0.149-0.943-0.391l-6.599-6.6-6.6 6.6c-0.24 0.232-0.566 0.374-0.926 0.374-0.736 0-1.333-0.597-1.333-1.333 0-0.36 0.143-0.687 0.375-0.927l6.6-6.6-6.6-6.6c-0.232-0.24-0.374-0.566-0.374-0.926 0-0.736 0.597-1.333 1.333-1.333 0.36 0 0.687 0.143 0.927 0.375l6.6 6.598 6.6-6.599c0.241-0.241 0.574-0.39 0.942-0.39s0.701 0.149 0.942 0.39l-0-0z"></path>
</symbol>
<symbol id="icon-hamburger" viewBox="0 0 54 32">
<path  opacity="0.8" d="M54.154 30.823h-54.154v-4.785h54.154v4.785zM54.154 18.86h-54.154v-4.785h54.154v4.785zM54.154 6.897h-54.154v-4.788h54.154v4.788z"></path>
</symbol>
<symbol id="icon-logo" viewBox="0 0 267 32">
<path fill="#e7e7e7" style="fill: var(--color3, #e7e7e7)" d="M216.019 5.299h46.101l4.549-5.285h-66.016l-18.32 31.973h42.787l3.072-5.288h-24.464l4.672-8.059h24.464l2.952-5.288h-24.349l4.549-8.053zM180.739 13.355h-18.197l2.952-5.16c1.227-2.139 2.336-2.896 4.179-2.896 1.845 0 2.459 1.512 1.475 3.4h18.565l1.843-3.4c1.352-2.517 1.352-5.285-1.965-5.285h-32.701c-2.952 0-5.288 0.379-7.008 3.272l-5.779 10.069c-1.6 2.896-1.475 5.288 2.459 5.288h18.808l-3.072 5.539c-0.861 1.509-1.968 2.517-4.549 2.517-2.213 0-2.088-1.512-1.107-3.021h-18.44l-2.213 3.776c-1.352 2.392-0.245 4.533 2.952 4.533h32.453c2.952 0 5.533-1.387 7.008-3.904l5.533-9.44c1.229-2.392 0.613-5.288-3.197-5.288z"></path>
<path fill="#e7e7e7" style="fill: var(--color3, #e7e7e7)" d="M259.715 6.232c-1.499 0-2.717 1.208-2.717 2.683-0.001 0.025-0.001 0.055-0.001 0.085 0 1.498 1.214 2.712 2.712 2.712s2.712-1.214 2.712-2.712c0-0.030-0-0.060-0.001-0.089l0 0.004c0-1.475-1.211-2.683-2.704-2.683zM259.715 11.101c-0.009 0-0.019 0-0.029 0-1.2 0-2.173-0.973-2.173-2.173 0-0.005 0-0.009 0-0.014v0.001c0-1.192 0.979-2.157 2.203-2.157 1.2 0 2.172 0.972 2.172 2.172s-0.972 2.172-2.172 2.172v0zM138.813 0.013h-27.784c-3.813 0-8.728 0-11.68 5.285l-12.293 21.4c-1.72 2.893-0.245 5.285 2.952 5.285h32.331c3.32 0 5.411-1.005 7.992-5.285l12.293-21.4c1.6-2.768-0.861-5.285-3.813-5.285zM123.2 8.195l-9.221 15.987c-1.227 2.267-2.333 2.517-5.163 2.517-2.827 0-3.565-1.008-2.704-2.517l9.341-15.987c1.355-2.392 2.952-2.896 5.288-2.896s3.688 0.757 2.459 2.896zM90.131 0.013h-35.653l-15.365 26.685h-33.931l-5.181 5.285h73.656c4.549 0 6.027-2.267 7.008-4.027l3.688-6.547c0.984-1.76 0.984-3.776-0.984-4.907 1.973 0 4.672-1.387 6.269-4.28l3.688-6.421c1.848-3.147-0.365-5.789-3.192-5.789zM71.811 21.536l-1.84 3.021c-0.493 1.008-1.355 2.141-3.445 2.141h-9.096l4.675-8.056h8.848c1.6 0 1.6 1.509 0.861 2.893zM79.557 8.195l-1.845 3.021c-0.491 1.008-1.352 2.139-3.44 2.139h-9.099l4.672-8.053h8.853c1.597 0 1.597 1.509 0.859 2.893z"></path>
<path fill="#e7e7e7" style="fill: var(--color3, #e7e7e7)" d="M261.101 8.213c0-0.253-0.109-0.523-0.333-0.651-0.188-0.095-0.41-0.15-0.644-0.15-0.034 0-0.068 0.001-0.102 0.003l0.005-0h-1.32v3.019h0.448v-1.389h0.531l0.864 1.389h0.517l-0.92-1.389c0.539-0.016 0.955-0.24 0.955-0.835zM259.648 8.669h-0.493v-0.907h0.784c0.379 0 0.715 0.053 0.715 0.44 0 0.544-0.581 0.467-1.005 0.467z"></path>
</symbol>
<symbol id="icon-vector" viewBox="0 0 31 32">
<path fill="none" stroke="#df3d3a" style="stroke: var(--color1, #df3d3a)" stroke-linejoin="miter" stroke-linecap="butt" stroke-miterlimit="4" stroke-width="2.7826" d="M1.391 30.431l27.826-27.876M29.217 2.554h-27.826M29.217 2.554v27.876"></path>
</symbol>
<symbol id="icon-sign" viewBox="0 0 16 32">
<path fill="#e7e7e7" d="M6.132 21.992c0-1.562 0.164-2.832 0.49-3.808 0.324-0.976 1.12-2.22 2.382-3.73l1.368-1.76c0.91-1.274 1.366-2.602 1.366-3.984 0-1.366-0.286-2.434-0.86-3.202-0.56-0.78-1.366-1.172-2.42-1.172-0.99 0-1.818 0.352-2.48 1.054-0.652 0.704-0.978 1.648-0.978 2.832h-3.438c0.026-2.148 0.678-3.86 1.954-5.136s2.922-1.914 4.94-1.914c2.098 0 3.744 0.658 4.942 1.972 1.2 1.316 1.798 3.132 1.798 5.45 0 2.214-0.906 4.434-2.716 6.66l-1.796 2.166c-0.742 1.054-1.114 2.578-1.114 4.57h-3.438zM8.008 26.112c0.65 0 1.14 0.204 1.464 0.606 0.34 0.392 0.508 0.88 0.508 1.466s-0.168 1.074-0.508 1.464c-0.324 0.378-0.814 0.566-1.464 0.566-0.664 0-1.16-0.188-1.484-0.566-0.314-0.39-0.47-0.88-0.47-1.464 0-0.586 0.156-1.074 0.47-1.466 0.324-0.402 0.82-0.604 1.484-0.604z"></path>
</symbol>
<symbol id="icon-01" viewBox="0 0 32 32">
<path fill="#e7e7e7" d="M15.48 13.516v4.336c0 2.33-0.18 4.296-0.546 5.898-0.352 1.6-0.86 2.89-1.524 3.868-0.664 0.976-1.464 1.686-2.402 2.128-0.883 0.407-1.917 0.645-3.006 0.645-0.042 0-0.085-0-0.127-0.001l0.006 0c-0.91 0-1.764-0.136-2.558-0.41-0.823-0.295-1.527-0.741-2.111-1.309l0.001 0.001c-0.624-0.612-1.158-1.406-1.6-2.382-0.444-0.978-0.782-2.162-1.016-3.556-0.234-1.392-0.352-3.020-0.352-4.882v-4.336c0-2.332 0.182-4.284 0.546-5.86 0.366-1.576 0.88-2.84 1.544-3.788 0.678-0.964 1.478-1.654 2.402-2.072 0.938-0.416 1.98-0.624 3.126-0.624 0.924 0 1.776 0.136 2.558 0.41 0.794 0.26 1.498 0.684 2.11 1.27 0.624 0.572 1.158 1.34 1.6 2.304 0.444 0.95 0.776 2.116 0.996 3.496 0.236 1.38 0.352 3 0.352 4.864zM12.042 18.436v-5.524c0-1.276-0.058-2.396-0.174-3.36-0.102-0.934-0.28-1.781-0.534-2.596l0.026 0.096c-0.193-0.644-0.487-1.203-0.868-1.691l0.008 0.011c-0.306-0.4-0.7-0.718-1.153-0.928l-0.019-0.008c-0.417-0.197-0.906-0.312-1.422-0.312-0.015 0-0.029 0-0.044 0l0.002-0c-0.664 0-1.258 0.16-1.778 0.488-0.508 0.312-0.944 0.814-1.308 1.504-0.352 0.69-0.62 1.594-0.8 2.714-0.184 1.12-0.274 2.48-0.274 4.082v5.528c0 1.276 0.058 2.4 0.174 3.38 0.132 0.974 0.306 1.82 0.528 2.538 0.234 0.702 0.52 1.282 0.86 1.738s0.728 0.794 1.172 1.016c0.442 0.208 0.924 0.312 1.444 0.312 0.69 0 1.29-0.17 1.798-0.508 0.52-0.34 0.956-0.866 1.308-1.582 0.352-0.73 0.612-1.66 0.78-2.792 0.184-1.146 0.274-2.514 0.274-4.102zM30.342 1.406v28.594h-3.456v-24.082l-5.976 2.656v-3.26l8.906-3.91h0.528z"></path>
</symbol>
<symbol id="icon-02" viewBox="0 0 36 32">
<path fill="#e7e7e7" d="M15.48 13.516v4.336c0 2.33-0.18 4.296-0.546 5.898-0.352 1.6-0.86 2.89-1.524 3.868-0.664 0.976-1.464 1.686-2.402 2.128-0.883 0.407-1.917 0.645-3.006 0.645-0.042 0-0.085-0-0.127-0.001l0.006 0c-0.91 0-1.764-0.136-2.558-0.41-0.823-0.295-1.527-0.741-2.111-1.309l0.001 0.001c-0.624-0.612-1.158-1.406-1.6-2.382-0.444-0.978-0.782-2.162-1.016-3.556-0.234-1.392-0.352-3.020-0.352-4.882v-4.336c0-2.332 0.182-4.284 0.546-5.86 0.366-1.576 0.88-2.84 1.544-3.788 0.678-0.964 1.478-1.654 2.402-2.072 0.938-0.416 1.98-0.624 3.126-0.624 0.924 0 1.776 0.136 2.558 0.41 0.794 0.26 1.498 0.684 2.11 1.27 0.624 0.572 1.158 1.34 1.6 2.304 0.444 0.95 0.776 2.116 0.996 3.496 0.236 1.38 0.352 3 0.352 4.864zM12.042 18.436v-5.524c0-1.276-0.058-2.396-0.174-3.36-0.102-0.934-0.28-1.781-0.534-2.596l0.026 0.096c-0.193-0.644-0.487-1.203-0.868-1.691l0.008 0.011c-0.306-0.4-0.7-0.718-1.153-0.928l-0.019-0.008c-0.417-0.197-0.906-0.312-1.422-0.312-0.015 0-0.029 0-0.044 0l0.002-0c-0.664 0-1.258 0.16-1.778 0.488-0.508 0.312-0.944 0.814-1.308 1.504-0.352 0.69-0.62 1.594-0.8 2.714-0.184 1.12-0.274 2.48-0.274 4.082v5.528c0 1.276 0.058 2.4 0.174 3.38 0.132 0.974 0.306 1.82 0.528 2.538 0.234 0.702 0.52 1.282 0.86 1.738s0.728 0.794 1.172 1.016c0.442 0.208 0.924 0.312 1.444 0.312 0.69 0 1.29-0.17 1.798-0.508 0.52-0.34 0.956-0.866 1.308-1.582 0.352-0.73 0.612-1.66 0.78-2.792 0.184-1.146 0.274-2.514 0.274-4.102zM35.95 27.032v2.968h-15.9v-2.598l7.832-10.37c0.964-1.276 1.7-2.358 2.208-3.242 0.508-0.9 0.86-1.7 1.054-2.404 0.187-0.655 0.295-1.408 0.296-2.186v-0c0-0.94-0.15-1.784-0.45-2.54-0.276-0.739-0.725-1.358-1.301-1.83l-0.007-0.006c-0.542-0.427-1.234-0.685-1.986-0.685-0.029 0-0.059 0-0.088 0.001l0.004-0c-1.056 0-1.92 0.248-2.6 0.742-0.662 0.482-1.15 1.16-1.464 2.032-0.312 0.872-0.468 1.876-0.468 3.008h-3.458c0-1.6 0.292-3.066 0.878-4.394 0.586-1.312 1.504-2.387 2.649-3.147l0.027-0.017c1.184-0.794 2.662-1.192 4.434-1.192 1.522 0 2.824 0.32 3.906 0.956 1.084 0.622 1.941 1.53 2.484 2.622l0.016 0.036c0.586 1.132 0.88 2.46 0.88 3.984 0 0.832-0.12 1.68-0.354 2.54-0.261 0.977-0.581 1.821-0.973 2.622l0.037-0.084c-0.392 0.846-0.854 1.68-1.388 2.5s-1.106 1.628-1.718 2.42l-6.308 8.264h11.758z"></path>
</symbol>
<symbol id="icon-03" viewBox="0 0 36 32">
<path fill="#e7e7e7" d="M15.48 17.872c0 4.192-0.612 7.33-1.836 9.414-1.224 2.070-3.144 3.104-5.76 3.104-2.54 0-4.434-0.996-5.684-2.988s-1.9-4.986-1.954-8.982v-4.884c0-4.154 0.612-7.254 1.836-9.298 1.238-2.044 3.158-3.066 5.76-3.066 2.566 0 4.46 0.97 5.686 2.91 1.236 1.94 1.888 4.876 1.952 8.808v4.98zM12.024 12.93c0-3.008-0.332-5.22-0.996-6.64-0.664-1.434-1.726-2.15-3.184-2.15-1.42 0-2.46 0.704-3.126 2.11-0.664 1.394-1.008 3.502-1.034 6.328v5.86c0 2.994 0.344 5.246 1.034 6.758 0.69 1.496 1.746 2.246 3.164 2.246 1.408 0 2.442-0.71 3.106-2.13s1.010-3.586 1.036-6.504v-5.88zM24.464 14.024h2.208c1.42 0 2.512-0.436 3.28-1.31 0.77-0.872 1.154-2.062 1.154-3.574 0-3.332-1.29-5-3.868-5-1.236 0-2.206 0.45-2.91 1.348-0.702 0.9-1.054 2.078-1.054 3.536h-3.438c0-2.28 0.69-4.154 2.070-5.626 1.394-1.484 3.17-2.226 5.334-2.226 2.24 0 4.018 0.704 5.332 2.11 1.316 1.392 1.972 3.372 1.972 5.936 0 1.316-0.344 2.546-1.034 3.692-0.678 1.132-1.562 1.966-2.656 2.5 2.68 0.99 4.022 3.21 4.022 6.66 0 2.54-0.708 4.564-2.128 6.074-1.406 1.498-3.248 2.246-5.528 2.246-2.252 0-4.074-0.708-5.468-2.128-1.38-1.432-2.070-3.354-2.070-5.762h3.456c0 1.51 0.366 2.714 1.094 3.614 0.73 0.884 1.726 1.328 2.988 1.328 1.29 0 2.312-0.436 3.068-1.31 0.768-0.872 1.152-2.2 1.152-3.984 0-3.45-1.634-5.176-4.902-5.176h-2.072v-2.948z"></path>
</symbol>
<symbol id="icon-04" viewBox="0 0 38 32">
<path fill="#e7e7e7" d="M15.48 13.516v4.336c0 2.33-0.18 4.296-0.546 5.898-0.352 1.6-0.86 2.89-1.524 3.868-0.664 0.976-1.464 1.686-2.402 2.128-0.883 0.407-1.917 0.645-3.006 0.645-0.042 0-0.085-0-0.127-0.001l0.006 0c-0.91 0-1.764-0.136-2.558-0.41-0.823-0.295-1.527-0.741-2.111-1.309l0.001 0.001c-0.624-0.612-1.158-1.406-1.6-2.382-0.444-0.978-0.782-2.162-1.016-3.556-0.234-1.392-0.352-3.020-0.352-4.882v-4.336c0-2.332 0.182-4.284 0.546-5.86 0.366-1.576 0.88-2.84 1.544-3.788 0.678-0.964 1.478-1.654 2.402-2.072 0.938-0.416 1.98-0.624 3.126-0.624 0.924 0 1.776 0.136 2.558 0.41 0.794 0.26 1.498 0.684 2.11 1.27 0.624 0.572 1.158 1.34 1.6 2.304 0.444 0.95 0.776 2.116 0.996 3.496 0.236 1.38 0.352 3 0.352 4.864zM12.042 18.436v-5.524c0-1.276-0.058-2.396-0.174-3.36-0.102-0.934-0.28-1.781-0.534-2.596l0.026 0.096c-0.193-0.644-0.487-1.203-0.868-1.691l0.008 0.011c-0.306-0.4-0.7-0.718-1.153-0.928l-0.019-0.008c-0.417-0.197-0.906-0.312-1.422-0.312-0.015 0-0.029 0-0.044 0l0.002-0c-0.664 0-1.258 0.16-1.778 0.488-0.508 0.312-0.944 0.814-1.308 1.504-0.352 0.69-0.62 1.594-0.8 2.714-0.184 1.12-0.274 2.48-0.274 4.082v5.528c0 1.276 0.058 2.4 0.174 3.38 0.132 0.974 0.306 1.82 0.528 2.538 0.234 0.702 0.52 1.282 0.86 1.738s0.728 0.794 1.172 1.016c0.442 0.208 0.924 0.312 1.444 0.312 0.69 0 1.29-0.17 1.798-0.508 0.52-0.34 0.956-0.866 1.308-1.582 0.352-0.73 0.612-1.66 0.78-2.792 0.184-1.146 0.274-2.514 0.274-4.102zM36.322 20.43v2.968h-17.386v-2.128l10.568-19.71h2.774l-2.774 5.704-6.72 13.164h13.536zM33.154 1.56v28.44h-3.454v-28.438h3.456z"></path>
</symbol>
</defs>
</svg>
