<svg width="221" height="83" fill="none" xmlns="http://www.w3.org/2000/svg"><path fill-rule="evenodd" clip-rule="evenodd" d="M3.558 82.006c-1.118.302-2.307.22-3.558-.252l.459-1.216c1.034.39 1.942.434 2.76.213.825-.222 1.613-.729 2.374-1.53 1.538-1.623 2.873-4.357 4.073-7.949 2.131-6.376 3.751-15.164 5.46-24.433v-.001c.212-1.151.426-2.31.642-3.472 1.948-10.483 4.1-21.253 7.307-29.407 1.603-4.076 3.489-7.549 5.783-10.01C31.165 1.473 33.907 0 37.178 0c2.961 0 5.537 1.373 7.783 3.67 2.238 2.288 4.181 5.524 5.909 9.346 3.456 7.645 6.124 17.81 8.518 27.913.576 2.434 1.137 4.863 1.689 7.255 1.746 7.568 3.405 14.757 5.207 20.495 1.186 3.777 2.418 6.871 3.75 9.01.939 1.507 1.869 2.45 2.796 2.884l.014-.035c1.034.39 1.942.434 2.76.213.825-.222 1.613-.729 2.374-1.53 1.538-1.623 2.872-4.357 4.073-7.949 2.13-6.376 3.75-15.164 5.46-24.433v-.006c.213-1.15.426-2.307.642-3.467 1.948-10.483 4.1-21.253 7.306-29.406 1.604-4.077 3.49-7.55 5.784-10.011C103.55 1.473 106.292 0 109.563 0c2.961 0 5.533 1.373 7.77 3.671 2.229 2.29 4.16 5.526 5.873 9.348 3.426 7.646 6.055 17.811 8.41 27.915.567 2.434 1.118 4.864 1.66 7.255h.001c1.716 7.57 3.347 14.759 5.127 20.497 1.171 3.777 2.391 6.871 3.715 9.01.932 1.506 1.857 2.448 2.782 2.882l.015-.038c1.033.39 1.948.434 2.78.213.838-.224 1.644-.733 2.426-1.537 1.581-1.625 2.975-4.361 4.247-7.953 2.268-6.4 4.059-15.23 5.947-24.537l.003-.015c.226-1.113.453-2.233.683-3.356 2.142-10.482 4.489-21.252 7.841-29.404 1.677-4.077 3.623-7.547 5.959-10.007C177.15 1.472 179.915 0 183.186 0c2.96 0 5.536 1.373 7.782 3.67 2.238 2.288 4.181 5.524 5.909 9.346 3.455 7.645 6.124 17.81 8.518 27.913a1332.98 1332.98 0 0 1 1.689 7.255c1.746 7.569 3.405 14.758 5.207 20.495 1.186 3.777 2.418 6.871 3.751 9.01 1.351 2.17 2.684 3.169 4.019 3.169v1.3c-2.048 0-3.72-1.528-5.123-3.78-1.422-2.283-2.693-5.506-3.888-9.31-1.818-5.79-3.493-13.051-5.243-20.633l-.001-.004c-.549-2.38-1.106-4.793-1.676-7.202-2.396-10.111-5.04-20.161-8.438-27.677-1.699-3.758-3.567-6.84-5.653-8.973-2.078-2.125-4.339-3.279-6.853-3.279-2.832 0-5.275 1.259-7.441 3.54-2.178 2.292-4.051 5.596-5.7 9.605-3.297 8.019-5.623 18.667-7.769 29.17-.231 1.13-.46 2.256-.687 3.378-1.883 9.282-3.694 18.211-5.994 24.704-1.287 3.632-2.756 6.591-4.541 8.426-.9.925-1.902 1.587-3.023 1.886a5.306 5.306 0 0 1-1.907.15v.004c-2.049 0-3.715-1.529-5.11-3.782-1.414-2.283-2.673-5.506-3.852-9.31-1.796-5.791-3.443-13.053-5.163-20.635v-.003l-.005-.02c-.539-2.375-1.085-4.781-1.644-7.184-2.357-10.112-4.962-20.162-8.33-27.678-1.684-3.758-3.54-6.84-5.618-8.973-2.069-2.124-4.324-3.278-6.839-3.278-2.83 0-5.247 1.258-7.369 3.535-2.135 2.29-3.948 5.592-5.525 9.6-3.153 8.018-5.286 18.664-7.238 29.168-.216 1.16-.43 2.316-.641 3.468l-.002.01c-1.704 9.245-3.342 18.134-5.504 24.603-1.214 3.632-2.62 6.594-4.363 8.43-.88.928-1.866 1.592-2.978 1.892a5.218 5.218 0 0 1-1.889.151c-2.048 0-3.72-1.527-5.123-3.78-1.422-2.282-2.693-5.505-3.888-9.308-1.818-5.791-3.493-13.052-5.243-20.634-.55-2.383-1.106-4.796-1.677-7.206-2.396-10.111-5.04-20.161-8.438-27.677-1.699-3.758-3.567-6.84-5.653-8.973C41.954 2.454 39.694 1.3 37.179 1.3c-2.83 0-5.248 1.258-7.37 3.535-2.135 2.29-3.948 5.592-5.525 9.6C21.131 22.453 19 33.1 17.046 43.603c-.216 1.16-.43 2.32-.642 3.473v.002l-.001.003c-1.704 9.245-3.342 18.133-5.504 24.603-1.213 3.632-2.62 6.594-4.363 8.43-.88.928-1.866 1.592-2.978 1.892Z" fill="#fff" fill-opacity=".8"/></svg>