<svg width="301" height="112" fill="none" xmlns="http://www.w3.org/2000/svg"><path fill-rule="evenodd" clip-rule="evenodd" d="M4.707 111.195c-1.47.396-3.04.292-4.707-.336l.458-1.216c1.45.546 2.74.613 3.911.297 1.177-.317 2.289-1.035 3.348-2.15 2.135-2.247 3.968-6.011 5.608-10.909 2.913-8.698 5.126-20.682 7.455-33.298.29-1.568.581-3.147.876-4.73 2.659-14.276 5.59-28.919 9.954-39.995 2.183-5.54 4.742-10.236 7.842-13.557C42.565 1.967 46.246 0 50.628 0c3.957 0 7.413 1.83 10.446 4.926 3.025 3.087 5.662 7.465 8.013 12.658 4.703 10.386 8.338 24.205 11.604 37.963.785 3.309 1.55 6.614 2.302 9.869 2.383 10.307 4.648 20.109 7.109 27.93 1.619 5.148 3.307 9.384 5.14 12.323 1.292 2.07 2.598 3.405 3.931 4.023l.019-.049c1.45.546 2.74.613 3.911.297 1.177-.317 2.288-1.035 3.347-2.15 2.136-2.247 3.969-6.011 5.609-10.908 2.912-8.699 5.125-20.682 7.455-33.299.289-1.568.581-3.147.876-4.73 2.658-14.276 5.59-28.919 9.954-39.995 2.182-5.539 4.741-10.236 7.842-13.557 3.113-3.334 6.794-5.3 11.176-5.3 3.957 0 7.406 1.829 10.428 4.926 3.013 3.088 5.633 7.467 7.964 12.66 4.663 10.387 8.244 24.207 11.456 37.966.771 3.302 1.521 6.6 2.259 9.849l.002.01.003.01c2.342 10.309 4.57 20.11 7 27.933 1.599 5.147 3.27 9.384 5.092 12.323 1.283 2.069 2.582 3.403 3.913 4.021l.02-.053c1.449.545 2.748.613 3.937.296 1.194-.318 2.33-1.038 3.418-2.155 2.193-2.25 4.108-6.017 5.846-10.914 3.099-8.731 5.546-20.772 8.12-33.439h.001l.01-.05c.306-1.506.614-3.021.925-4.54 2.923-14.278 6.119-28.92 10.682-39.995 2.282-5.539 4.924-10.234 8.082-13.552C241.689 1.966 245.402 0 249.783 0c3.956 0 7.412 1.83 10.445 4.926 3.025 3.087 5.662 7.465 8.014 12.658 4.703 10.386 8.338 24.205 11.604 37.963.785 3.309 1.549 6.614 2.301 9.869h.001c2.382 10.308 4.648 20.109 7.108 27.93 1.619 5.148 3.307 9.384 5.141 12.323 1.853 2.968 3.733 4.425 5.684 4.425v1.3c-2.663 0-4.882-1.984-6.787-5.037-1.923-3.082-3.65-7.446-5.278-12.62-2.477-7.875-4.759-17.749-7.145-28.07l-.003-.012c-.749-3.241-1.508-6.527-2.287-9.808-3.268-13.766-6.879-27.47-11.524-37.727-2.322-5.128-4.884-9.351-7.757-12.285-2.865-2.924-6.005-4.535-9.517-4.535-3.942 0-7.334 1.753-10.321 4.893-3 3.152-5.568 7.68-7.822 13.15-4.508 10.943-7.683 25.463-10.611 39.76l-.936 4.598c-2.569 12.643-5.036 24.782-8.168 33.607-1.753 4.937-3.743 8.926-6.14 11.386-1.207 1.238-2.538 2.111-4.015 2.505a7.021 7.021 0 0 1-2.539.194v.008c-2.664 0-4.876-1.985-6.77-5.038-1.911-3.083-3.621-7.448-5.229-12.622-2.446-7.876-4.69-17.75-7.036-28.072a1670.4 1670.4 0 0 0-2.252-9.82c-3.213-13.767-6.771-27.472-11.376-37.73-2.302-5.128-4.847-9.351-7.709-12.284-2.852-2.924-5.986-4.535-9.497-4.535-3.941 0-7.298 1.752-10.226 4.888-2.941 3.15-5.427 7.676-7.583 13.146-4.31 10.941-7.223 25.46-9.885 39.757a2572.7 2572.7 0 0 0-.877 4.735c-2.325 12.592-4.556 24.676-7.499 33.468-1.653 4.938-3.559 8.929-5.899 11.392-1.178 1.24-2.488 2.115-3.952 2.51a6.9 6.9 0 0 1-2.514.195v.003c-2.664 0-4.882-1.984-6.787-5.037-1.924-3.082-3.65-7.446-5.278-12.62-2.477-7.875-4.76-17.749-7.145-28.07v-.001c-.75-3.245-1.511-6.534-2.29-9.819-3.268-13.766-6.88-27.47-11.524-37.727-2.323-5.128-4.885-9.351-7.758-12.285C57.281 2.911 54.14 1.3 50.628 1.3c-3.94 0-7.297 1.752-10.226 4.888-2.94 3.15-5.427 7.676-7.582 13.146-4.31 10.941-7.223 25.46-9.886 39.757-.295 1.583-.586 3.163-.877 4.735-2.324 12.592-4.555 24.676-7.499 33.468-1.653 4.937-3.559 8.929-5.899 11.392-1.178 1.24-2.487 2.115-3.952 2.509Z" fill="#fff" fill-opacity=".8"/></svg>